<svg width="14" height="14" viewBox="0 0 14 14" fill="none" xmlns="http://www.w3.org/2000/svg">
<path d="M6.65336 1.33265C6.68156 1.26387 6.72958 1.20503 6.79131 1.16362C6.85304 1.12221 6.92569 1.1001 7.00003 1.1001C7.07436 1.1001 7.14702 1.12221 7.20875 1.16362C7.27048 1.20503 7.3185 1.26387 7.3467 1.33265L8.76336 4.73998C8.78988 4.80374 8.83347 4.85894 8.88934 4.89952C8.94521 4.9401 9.0112 4.96448 9.08003 4.96998L12.7587 5.26465C13.0914 5.29131 13.226 5.70665 12.9727 5.92331L10.17 8.32465C10.1177 8.36944 10.0786 8.42778 10.0572 8.49328C10.0358 8.55878 10.0329 8.62891 10.0487 8.69598L10.9054 12.286C10.9226 12.358 10.9181 12.4335 10.8924 12.503C10.8667 12.5724 10.821 12.6327 10.7611 12.6763C10.7012 12.7198 10.6297 12.7445 10.5557 12.7475C10.4817 12.7504 10.4085 12.7313 10.3454 12.6926L7.19536 10.7693C7.13654 10.7334 7.06895 10.7144 7.00003 10.7144C6.9311 10.7144 6.86351 10.7334 6.80469 10.7693L3.65469 12.6933C3.59153 12.732 3.51833 12.7511 3.44433 12.7481C3.37034 12.7452 3.29886 12.7204 3.23894 12.6769C3.17902 12.6334 3.13334 12.5731 3.10766 12.5036C3.08199 12.4342 3.07748 12.3587 3.09469 12.2866L3.95136 8.69598C3.96725 8.62891 3.96433 8.55876 3.94292 8.49325C3.92151 8.42773 3.88245 8.36939 3.83003 8.32465L1.02736 5.92331C0.970923 5.8752 0.930032 5.81143 0.909868 5.74006C0.889703 5.66869 0.891172 5.59295 0.914087 5.52241C0.937003 5.45188 0.980335 5.38974 1.0386 5.34385C1.09686 5.29796 1.16742 5.2704 1.24136 5.26465L4.92003 4.96998C4.98886 4.96448 5.05484 4.9401 5.11071 4.89952C5.16658 4.85894 5.21018 4.80374 5.23669 4.73998L6.65336 1.33265Z" stroke="#224229" stroke-linecap="round" stroke-linejoin="round"/>
</svg>
